<mxfile host="app.diagrams.net" modified="2023-12-05T16:21:40.202Z" agent="Mozilla/5.0 (Windows NT 10.0; Win64; x64) AppleWebKit/537.36 (KHTML, like Gecko) Chrome/119.0.0.0 Safari/537.36" etag="dP3qZQBRWwatb7rWJBht" version="22.1.5" type="github">
  <diagram id="C5RBs43oDa-KdzZeNtuy" name="Page-1">
    <mxGraphModel dx="880" dy="528" grid="1" gridSize="10" guides="1" tooltips="1" connect="1" arrows="1" fold="1" page="1" pageScale="1" pageWidth="827" pageHeight="1169" math="0" shadow="0">
      <root>
        <mxCell id="WIyWlLk6GJQsqaUBKTNV-0" />
        <mxCell id="WIyWlLk6GJQsqaUBKTNV-1" parent="WIyWlLk6GJQsqaUBKTNV-0" />
        <mxCell id="NLhh5YI8XGJ1_GFsfxwZ-2" value="" style="edgeStyle=orthogonalEdgeStyle;rounded=0;orthogonalLoop=1;jettySize=auto;html=1;" edge="1" parent="WIyWlLk6GJQsqaUBKTNV-1" source="NLhh5YI8XGJ1_GFsfxwZ-0">
          <mxGeometry relative="1" as="geometry">
            <mxPoint x="430" y="130" as="targetPoint" />
          </mxGeometry>
        </mxCell>
        <mxCell id="NLhh5YI8XGJ1_GFsfxwZ-0" value="Start" style="rounded=1;whiteSpace=wrap;html=1;fontSize=12;glass=0;strokeWidth=1;shadow=0;" vertex="1" parent="WIyWlLk6GJQsqaUBKTNV-1">
          <mxGeometry x="370" y="20" width="120" height="40" as="geometry" />
        </mxCell>
        <mxCell id="NLhh5YI8XGJ1_GFsfxwZ-5" value="" style="edgeStyle=orthogonalEdgeStyle;rounded=0;orthogonalLoop=1;jettySize=auto;html=1;" edge="1" parent="WIyWlLk6GJQsqaUBKTNV-1" source="NLhh5YI8XGJ1_GFsfxwZ-3" target="NLhh5YI8XGJ1_GFsfxwZ-4">
          <mxGeometry relative="1" as="geometry" />
        </mxCell>
        <mxCell id="NLhh5YI8XGJ1_GFsfxwZ-7" value="" style="edgeStyle=orthogonalEdgeStyle;rounded=0;orthogonalLoop=1;jettySize=auto;html=1;" edge="1" parent="WIyWlLk6GJQsqaUBKTNV-1" source="NLhh5YI8XGJ1_GFsfxwZ-3" target="NLhh5YI8XGJ1_GFsfxwZ-6">
          <mxGeometry relative="1" as="geometry" />
        </mxCell>
        <mxCell id="NLhh5YI8XGJ1_GFsfxwZ-9" value="" style="edgeStyle=orthogonalEdgeStyle;rounded=0;orthogonalLoop=1;jettySize=auto;html=1;" edge="1" parent="WIyWlLk6GJQsqaUBKTNV-1" source="NLhh5YI8XGJ1_GFsfxwZ-3" target="NLhh5YI8XGJ1_GFsfxwZ-8">
          <mxGeometry relative="1" as="geometry" />
        </mxCell>
        <mxCell id="NLhh5YI8XGJ1_GFsfxwZ-3" value="Input Dataset&amp;nbsp;" style="shape=parallelogram;perimeter=parallelogramPerimeter;whiteSpace=wrap;html=1;fixedSize=1;" vertex="1" parent="WIyWlLk6GJQsqaUBKTNV-1">
          <mxGeometry x="360" y="130" width="150" height="60" as="geometry" />
        </mxCell>
        <mxCell id="NLhh5YI8XGJ1_GFsfxwZ-4" value="Input Dataset&amp;nbsp;" style="shape=parallelogram;perimeter=parallelogramPerimeter;whiteSpace=wrap;html=1;fixedSize=1;" vertex="1" parent="WIyWlLk6GJQsqaUBKTNV-1">
          <mxGeometry x="170" y="230" width="150" height="60" as="geometry" />
        </mxCell>
        <mxCell id="NLhh5YI8XGJ1_GFsfxwZ-6" value="Input Dataset&amp;nbsp;" style="shape=parallelogram;perimeter=parallelogramPerimeter;whiteSpace=wrap;html=1;fixedSize=1;" vertex="1" parent="WIyWlLk6GJQsqaUBKTNV-1">
          <mxGeometry x="550" y="230" width="150" height="60" as="geometry" />
        </mxCell>
        <mxCell id="NLhh5YI8XGJ1_GFsfxwZ-8" value="Input Dataset&amp;nbsp;" style="shape=parallelogram;perimeter=parallelogramPerimeter;whiteSpace=wrap;html=1;fixedSize=1;" vertex="1" parent="WIyWlLk6GJQsqaUBKTNV-1">
          <mxGeometry x="360" y="230" width="150" height="60" as="geometry" />
        </mxCell>
      </root>
    </mxGraphModel>
  </diagram>
</mxfile>
